<?xml version="1.0" encoding="UTF-8" standalone="no"?>
<svg xmlns="http://www.w3.org/2000/svg" width="150" height="150" viewBox="0 0 150 150" fill="none">
  <rect width="150" height="150" rx="20" fill="#F0F9FF"/>
  <path d="M30 40 L120 40 L120 45 L30 45 Z" fill="#3B82F6"/>
  <path d="M30 60 L100 60 L100 65 L30 65 Z" fill="#3B82F6"/>
  <path d="M30 80 L120 80 L120 85 L30 85 Z" fill="#3B82F6"/>
  <path d="M50 100 L120 100 L120 105 L50 105 Z" fill="#3B82F6"/>
  <path d="M70 120 L120 120 L120 125 L70 125 Z" fill="#3B82F6"/>
  <circle cx="25" cy="43" r="8" fill="#2563EB"/>
  <circle cx="25" cy="63" r="8" fill="#2563EB"/>
  <circle cx="25" cy="83" r="8" fill="#2563EB"/>
  <circle cx="45" cy="103" r="8" fill="#2563EB"/>
  <circle cx="65" cy="123" r="8" fill="#2563EB"/>
</svg>